<svg width="45" height="39" viewBox="0 0 45 39" fill="none" xmlns="http://www.w3.org/2000/svg">
<rect width="44.4347" height="39" rx="10" fill="#D8D0BC"/>
<path d="M32.4003 10.5625H32.4188M12.9601 3.25H31.4746C36.5872 3.25 40.7318 6.88769 40.7318 11.375V27.625C40.7318 32.1123 36.5872 35.75 31.4746 35.75H12.9601C7.84749 35.75 3.70288 32.1123 3.70288 27.625V11.375C3.70288 6.88769 7.84749 3.25 12.9601 3.25ZM29.6231 18.4763C29.8516 19.8287 29.5884 21.2099 28.871 22.4234C28.1536 23.6369 27.0184 24.621 25.627 25.2357C24.2356 25.8504 22.6588 26.0643 21.1209 25.8471C19.583 25.6299 18.1622 24.9926 17.0608 24.0259C15.9593 23.0591 15.2332 21.8122 14.9857 20.4623C14.7383 19.1125 14.982 17.7286 15.6824 16.5074C16.3827 15.2861 17.5039 14.2898 18.8866 13.6601C20.2692 13.0305 21.8429 12.7995 23.3838 13C24.9555 13.2046 26.4106 13.8474 27.5341 14.8335C28.6577 15.8196 29.3901 17.0968 29.6231 18.4763Z" stroke="#1E1E1E" stroke-width="2" stroke-linecap="round" stroke-linejoin="round"/>
</svg>
