<svg width="45" height="39" viewBox="0 0 45 39" fill="none" xmlns="http://www.w3.org/2000/svg">
<g clip-path="url(#clip0_304_79)">
<rect width="44.4347" height="39" rx="10" fill="#D8D0BC"/>
<path d="M41.7316 10.4325C41.5117 9.66129 41.0638 8.95468 40.4331 8.38403C39.8025 7.81339 39.0114 7.39893 38.1398 7.1825C34.9553 6.5 22.2174 6.5 22.2174 6.5C22.2174 6.5 9.47943 6.5 6.29494 7.2475C5.42336 7.46393 4.63229 7.87839 4.00163 8.44903C3.37097 9.01968 2.92306 9.72629 2.70313 10.4975C2.12032 13.334 1.83523 16.2115 1.85146 19.0937C1.83069 21.9977 2.11579 24.8971 2.70313 27.755C2.94559 28.5023 3.40354 29.182 4.03273 29.7285C4.66192 30.2751 5.44109 30.6699 6.29494 30.875C9.47943 31.6225 22.2174 31.6225 22.2174 31.6225C22.2174 31.6225 34.9553 31.6225 38.1398 30.875C39.0114 30.6586 39.8025 30.2441 40.4331 29.6735C41.0638 29.1028 41.5117 28.3962 41.7316 27.625C42.31 24.8098 42.595 21.9543 42.5833 19.0937C42.6041 16.1898 42.319 13.2904 41.7316 10.4325Z" stroke="#1E1E1E" stroke-width="3.25" stroke-linecap="round" stroke-linejoin="round"/>
<path d="M18.0516 24.4075L28.6974 19.0937L18.0516 13.78V24.4075Z" stroke="#1E1E1E" stroke-width="3.25" stroke-linecap="round" stroke-linejoin="round"/>
</g>
<defs>
<clipPath id="clip0_304_79">
<rect width="44.4347" height="39" rx="10" fill="white"/>
</clipPath>
</defs>
</svg>
